<svg xmlns="http://www.w3.org/2000/svg" width="28" height="28" viewBox="0 0 28 28">
    <g>
        <g transform="translate(-784 -989) translate(784 989)">
            <rect width="28" height="28" fill="#054848" rx="4"/>
            <g>
                <path fill="#f1f2f2" d="M42.7 33.127v5.781h-3.35v-5.393c0-1.354-.484-2.279-1.7-2.279a1.833 1.833 0 0 0-1.719 1.225 2.294 2.294 0 0 0-.111.817v5.63h-3.349s.045-9.134 0-10.08h3.352v1.428c-.007.011-.016.022-.022.033h.022v-.033a3.328 3.328 0 0 1 3.02-1.665c2.2 0 3.858 1.441 3.858 4.536zm-13.735-9.158a1.747 1.747 0 1 0-.044 3.483h.022a1.747 1.747 0 1 0 .022-3.483zm-1.7 14.939h3.35v-10.08h-3.35z" transform="translate(6.654 5.898) translate(-27.068 -23.969)"/>
            </g>
        </g>
    </g>
</svg>
