<svg width="68" height="69" viewBox="0 0 68 69" fill="none" xmlns="http://www.w3.org/2000/svg">
<path d="M31.3516 34.81C32.5068 35.5825 33.6669 36.2 34.8125 36.648C35.5851 35.4929 36.2026 34.333 36.6507 33.1875C35.4955 32.4151 34.3354 31.7976 33.1898 31.3496C32.4172 32.5047 31.7996 33.6646 31.3516 34.81Z" fill="white"/>
<path d="M67.2202 30.8873C60.6447 18.5131 50.4436 7.88965 37.1497 0.792034C37.14 0.787191 37.1279 0.779927 37.1182 0.775083C35.1734 -0.263768 32.8314 -0.256504 30.8842 0.779927C18.5107 7.3569 7.89059 17.5541 0.791969 30.8437C0.787126 30.8534 0.77986 30.8655 0.775016 30.8752C-0.261562 32.8197 -0.256718 35.1613 0.77986 37.1083C7.35777 49.4849 17.5589 60.1083 30.8527 67.2083C30.8648 67.2156 30.877 67.2204 30.8866 67.2277C32.8314 68.2666 35.1734 68.2593 37.1206 67.2229C49.4893 60.6459 60.107 50.4511 67.2008 37.1664C67.2081 37.1519 67.2153 37.1373 67.2226 37.1228C68.2616 35.1759 68.2567 32.8342 67.2202 30.8873ZM59.6129 44.2374C56.8156 43.7845 52.4925 44.1938 47.3193 45.3755C44.3936 40.2684 40.8601 36.1978 37.2563 33.6115L39.2253 45.5063L23.8486 59.6361L23.759 59.6119C24.2119 56.815 23.8026 52.4925 22.6207 47.32C27.7285 44.3948 31.7997 40.8617 34.3863 37.2584L22.4899 39.2271L8.36044 23.8526L8.38466 23.763C11.182 24.2158 15.5051 23.8066 20.6783 22.6249C23.604 27.732 27.1375 31.8026 30.7413 34.3888L28.7723 22.4941L44.149 8.36427L44.2386 8.38849C43.7857 11.1854 44.195 15.5079 45.3769 20.6804C40.2691 23.6056 36.1979 27.1387 33.6113 30.742L45.5077 28.7732L59.6396 44.1478L59.6129 44.2374Z" fill="white"/>
</svg>
