<svg width="68" height="69" viewBox="0 0 68 69" fill="none" xmlns="http://www.w3.org/2000/svg">
<path d="M37.1182 0.7749C35.1734 -0.263952 32.8314 -0.256687 30.8842 0.779744C18.5107 7.35672 7.89059 17.5539 0.791969 30.8435C0.787125 30.8532 0.77986 30.8653 0.775016 30.875C-0.261562 32.8195 -0.256718 35.1611 0.77986 37.1081C7.35777 49.4847 17.5589 60.1081 30.8527 67.2082C30.8648 67.2154 30.8769 67.2203 30.8866 67.2275C32.8314 68.2664 35.1734 68.2591 37.1206 67.2227C49.4893 60.6457 60.107 50.4509 67.2008 37.1662C67.208 37.1517 67.2153 37.1371 67.2226 37.1226C68.2592 35.1781 68.2519 32.8364 67.2177 30.8895C60.6447 18.5129 50.4436 7.88946 37.1497 0.791851C37.14 0.787008 37.1279 0.779744 37.1182 0.7749Z" fill="#1B233E"/>
<path d="M45.3768 20.6802C44.1949 15.5077 43.7856 11.1852 44.2385 8.38832L44.1489 8.36411L28.7722 22.4939L30.9858 35.8561C32.5625 30.6256 37.8495 24.993 45.3768 20.6802Z" fill="white"/>
<path d="M22.623 47.3174C23.8049 52.4899 24.2142 56.8124 23.7613 59.6093L23.851 59.6335L39.2277 45.5037L37.014 32.1414C35.4374 37.372 30.1503 43.007 22.623 47.3174Z" fill="white"/>
<path d="M20.6806 22.6247C15.5074 23.8064 11.1843 24.2157 8.38701 23.7628L8.36279 23.8524L22.4946 39.227L35.8587 37.0136C30.6274 35.4348 24.9916 30.1509 20.6806 22.6247Z" fill="white"/>
<path d="M47.3192 45.3753C52.4924 44.1936 56.8155 43.7843 59.6129 44.2372L59.6371 44.1476L45.5052 28.773L32.1411 30.9864C37.3724 32.5628 43.0082 37.8491 47.3192 45.3753Z" fill="white"/>
</svg>
