<svg width="40" height="40" viewBox="0 0 40 40" fill="none" xmlns="http://www.w3.org/2000/svg">
<path d="M28.8759 9.60892C27.954 5.5734 27.6347 2.20102 27.988 0.0188929L27.9181 0L15.923 11.024L17.6498 21.4491C18.8797 17.3682 23.004 12.9737 28.8759 9.60892Z" fill="#FBF6ED"/>
<path d="M11.1261 30.3912C12.0481 34.4267 12.3674 37.7991 12.0141 39.9812L12.084 40.0001L24.0791 28.9761L22.3522 18.551C21.1204 22.6319 16.998 27.0264 11.1261 30.3912Z" fill="#FBF6ED"/>
<path d="M9.60892 11.126C5.5734 12.0479 2.20102 12.3672 0.0188929 12.0139L0 12.0838L11.024 24.0789L21.4491 22.3521C17.3682 21.1203 12.9737 16.9979 9.60892 11.126Z" fill="#FBF6ED"/>
<path d="M30.3911 28.8758C34.4266 27.9538 37.799 27.6345 39.9811 27.9878L40 27.9179L28.976 15.9229L18.5509 17.6497C22.6318 18.8796 27.0262 23.0039 30.3911 28.8758Z" fill="#FBF6ED"/>
</svg>
