<svg width="121" height="120" viewBox="0 0 121 120" fill="none" xmlns="http://www.w3.org/2000/svg">
<path d="M65.9905 1.369C62.5584 -0.464152 58.4253 -0.451333 54.9888 1.37755C33.1521 12.9832 14.4099 30.9772 1.88228 54.4279C1.87373 54.445 1.86091 54.4664 1.85236 54.4834C0.0230163 57.9147 0.0315646 62.0468 1.86091 65.4824C13.4696 87.3221 31.4724 106.068 54.9333 118.597C54.9546 118.61 54.976 118.618 54.9931 118.631C58.4253 120.464 62.5584 120.451 65.9948 118.622C87.823 107.017 106.561 89.0271 119.08 65.5849C119.093 65.5593 119.106 65.5337 119.118 65.508C120.948 62.0767 120.935 57.9446 119.11 54.5091C107.51 32.6693 89.507 13.9233 66.0461 1.39891C66.029 1.39037 66.0076 1.37755 65.9905 1.369Z" fill="#FBF6ED"/>
</svg>
