<svg width="24" height="24" viewBox="0 0 24 24" fill="none" xmlns="http://www.w3.org/2000/svg">
<path d="M17.3255 5.76535C16.7723 3.34404 16.5807 1.32061 16.7927 0.0113357L16.7508 0L9.55371 6.6144L10.5898 12.8694C11.3278 10.4209 13.8023 7.78424 17.3255 5.76535Z" fill="white"/>
<path d="M6.67554 18.2345C7.22872 20.6558 7.42029 22.6792 7.20832 23.9885L7.25026 23.9998L14.4473 17.3854L13.4112 11.1304C12.6721 13.5789 10.1987 16.2156 6.67554 18.2345Z" fill="white"/>
<path d="M5.76535 6.67578C3.34404 7.22896 1.32061 7.42054 0.0113357 7.20856L0 7.2505L6.6144 14.4476L12.8694 13.4115C10.4209 12.6724 7.78424 10.1989 5.76535 6.67578Z" fill="white"/>
<path d="M18.2347 17.3255C20.656 16.7723 22.6795 16.5807 23.9887 16.7927L24.0001 16.7508L17.3857 9.55371L11.1306 10.5898C13.5791 11.3278 16.2158 13.8023 18.2347 17.3255Z" fill="white"/>
</svg>
